<?xml version="1.0" encoding="UTF-8" standalone="no"?>
<svg
   xmlns:dc="http://purl.org/dc/elements/1.1/"
   xmlns:cc="http://creativecommons.org/ns#"
   xmlns:rdf="http://www.w3.org/1999/02/22-rdf-syntax-ns#"
   xmlns:svg="http://www.w3.org/2000/svg"
   xmlns="http://www.w3.org/2000/svg"
   xmlns:sodipodi="http://sodipodi.sourceforge.net/DTD/sodipodi-0.dtd"
   xmlns:inkscape="http://www.inkscape.org/namespaces/inkscape"
   viewBox="0 0 22 22"
   version="1.1"
   id="svg4"
   sodipodi:docname="transform-translation (cópia).svg"
   inkscape:version="0.92.2pre0 (973e216, 2017-07-25)">
  <metadata
     id="metadata10">
    <rdf:RDF>
      <cc:Work
         rdf:about="">
        <dc:format>image/svg+xml</dc:format>
        <dc:type
           rdf:resource="http://purl.org/dc/dcmitype/StillImage" />
      </cc:Work>
    </rdf:RDF>
  </metadata>
  <defs
     id="defs8" />
  <sodipodi:namedview
     pagecolor="#ffffff"
     bordercolor="#666666"
     borderopacity="1"
     objecttolerance="10"
     gridtolerance="10"
     guidetolerance="10"
     inkscape:pageopacity="0"
     inkscape:pageshadow="2"
     inkscape:window-width="1366"
     inkscape:window-height="703"
     id="namedview6"
     showgrid="false"
     inkscape:zoom="15.170655"
     inkscape:cx="11.978876"
     inkscape:cy="11.885617"
     inkscape:window-x="0"
     inkscape:window-y="33"
     inkscape:window-maximized="1"
     inkscape:current-layer="svg4" />
  <path
     style="fill:#000000;stroke-width:1.84800005"
     d="m 11,9.1520001 c -1.023792,0 -1.848,0.8242078 -1.848,1.8479999 0,1.023792 0.824208,1.848 1.848,1.848 1.023792,0 1.848,-0.824208 1.848,-1.848 0,-1.0237921 -0.824208,-1.8479999 -1.848,-1.8479999 z"
     id="path2-62"
     inkscape:connector-curvature="0" />
  <path
     style="fill:#000000;stroke-width:1.39776003"
     d="M 5.59104,8.2044805 0,11 5.59104,13.795519 Z"
     id="path2-3-9"
     inkscape:connector-curvature="0" />
  <path
     style="fill:#000000;stroke-width:1.39776003"
     d="M 11.000001,0 8.204479,5.5910401 h 5.591042 z"
     id="path2-6-1"
     inkscape:connector-curvature="0" />
  <path
     style="fill:#000000;stroke-width:1.39776003"
     d="M 16.40896,8.2044795 V 13.795521 L 22,11.000001 Z"
     id="path2-7-2"
     inkscape:connector-curvature="0" />
  <path
     style="fill:#000000;stroke-width:1.48108792"
     d="M 8.0378245,16.075648 11,22 13.962176,16.075648 Z"
     id="path2-5-7"
     inkscape:connector-curvature="0" />
  <path
     style="fill:#ffffff"
     d="m 11,10.000001 c -0.554,0 -1,0.445999 -1,0.999999 0,0.554 0.446,1 1,1 0.554,0 1,-0.446 1,-1 0,-0.554 -0.446,-0.999999 -1,-0.999999 z"
     id="path2-0"
     inkscape:connector-curvature="0" />
  <path
     style="fill:#ffffff"
     d="m 5.2172312,9.0515098 -4,2.0000002 4,1.999999 z"
     id="path2-3-93"
     inkscape:connector-curvature="0" />
  <path
     style="fill:#ffffff"
     d="m 11,1.059187 -1.9999998,4 H 13 Z"
     id="path2-6-6"
     inkscape:connector-curvature="0" />
  <path
     style="fill:#ffffff"
     d="m 17.00673,8.9340833 v 3.9999997 l 4,-2 z"
     id="path2-7-0"
     inkscape:connector-curvature="0" />
  <path
     style="fill:#ffffff"
     d="m 9.073747,16.682015 2,4 2,-4 z"
     id="path2-5-6"
     inkscape:connector-curvature="0" />
  <path
     style="fill:#000000;stroke-width:0.63999999"
     d="m 11,10.36 c -0.35456,0 -0.64,0.28544 -0.64,0.64 0,0.35456 0.28544,0.64 0.64,0.64 0.35456,0 0.64,-0.285439 0.64,-0.64 0,-0.35456 -0.28544,-0.64 -0.64,-0.64 z"
     id="path2-2"
     inkscape:connector-curvature="0" />
  <path
     style="fill:#000000;stroke-width:0.63999999"
     d="m 4.7608987,9.7385518 -2.56,1.2800002 2.56,1.28 z"
     id="path2-3-6"
     inkscape:connector-curvature="0" />
  <path
     style="fill:#000000;stroke-width:0.63999999"
     d="m 11.073548,2.1206718 -1.2800003,2.56 h 2.5600003 z"
     id="path2-6-18"
     inkscape:connector-curvature="0" />
  <path
     style="fill:#000000;stroke-width:0.63999999"
     d="M 17.518958,9.6822595 V 12.24226 l 2.56,-1.28 z"
     id="path2-7-7"
     inkscape:connector-curvature="0" />
  <path
     style="fill:#000000;stroke-width:0.63999999"
     d="m 9.7937467,17.039472 1.2800003,2.56 1.280001,-2.56 z"
     id="path2-5-9"
     inkscape:connector-curvature="0" />
</svg>
