<?xml version="1.0" encoding="UTF-8" standalone="no"?>
<svg
   xmlns:dc="http://purl.org/dc/elements/1.1/"
   xmlns:cc="http://creativecommons.org/ns#"
   xmlns:rdf="http://www.w3.org/1999/02/22-rdf-syntax-ns#"
   xmlns:svg="http://www.w3.org/2000/svg"
   xmlns="http://www.w3.org/2000/svg"
   xmlns:sodipodi="http://sodipodi.sourceforge.net/DTD/sodipodi-0.dtd"
   xmlns:inkscape="http://www.inkscape.org/namespaces/inkscape"
   viewBox="0 0 22 22"
   version="1.1"
   id="svg4"
   sodipodi:docname="rotate-right.svg"
   inkscape:version="0.92.2pre0 (973e216, 2017-07-25)">
  <metadata
     id="metadata10">
    <rdf:RDF>
      <cc:Work
         rdf:about="">
        <dc:format>image/svg+xml</dc:format>
        <dc:type
           rdf:resource="http://purl.org/dc/dcmitype/StillImage" />
      </cc:Work>
    </rdf:RDF>
  </metadata>
  <defs
     id="defs8" />
  <sodipodi:namedview
     pagecolor="#ffffff"
     bordercolor="#666666"
     borderopacity="1"
     objecttolerance="10"
     gridtolerance="10"
     guidetolerance="10"
     inkscape:pageopacity="0"
     inkscape:pageshadow="2"
     inkscape:window-width="826"
     inkscape:window-height="480"
     id="namedview6"
     showgrid="false"
     inkscape:zoom="10.727273"
     inkscape:cx="11"
     inkscape:cy="11"
     inkscape:window-x="0"
     inkscape:window-y="33"
     inkscape:window-maximized="0"
     inkscape:current-layer="svg4" />
  <path
     d="M 11,4.6 C 10.133336,4.6 9.306112,4.76884 8.517184,5.107816 7.72816,5.446784 7.047288,5.902816 6.475,6.475 5.902816,7.047184 5.446584,7.728256 5.107816,8.517184 4.768944,9.306112 4.6,10.133232 4.6,11 c 0,0.86656 0.168944,1.693888 0.507816,2.482816 0.338968,0.78892 0.795,1.469792 1.367184,2.042184 0.572392,0.57208 1.253256,1.02832 2.042184,1.367184 C 9.306112,17.231056 10.133336,17.4 11,17.4 c 0.955552,0 1.863856,-0.201992 2.725,-0.604688 0.861144,-0.402696 1.594368,-0.969736 2.2,-1.703128 0.03888,-0.05552 0.05744,-0.117944 0.05472,-0.187496 -0.0024,-0.06944 -0.02744,-0.12728 -0.07184,-0.171872 l -1.140624,-1.15 c -0.05552,-0.05 -0.126016,-0.07496 -0.209376,-0.07496 -0.08889,0.01112 -0.15176,0.04448 -0.190624,0.1 -0.40556,0.527888 -0.903328,0.936144 -1.492192,1.225 -0.58896,0.288848 -1.213824,0.434368 -1.875,0.434368 -0.577704,0 -1.129656,-0.112472 -1.654688,-0.337496 C 8.820448,14.7048 8.36624,14.400592 7.98288,14.017224 7.599512,13.633864 7.295408,13.17976 7.070376,12.654728 6.845448,12.129696 6.73288,11.577952 6.73288,11.00004 6.73288,10.422128 6.845448,9.870384 7.070376,9.345352 7.295408,8.82032 7.599512,8.36612 7.98288,7.982856 8.36624,7.599488 8.820344,7.295384 9.345376,7.070352 c 0.525032,-0.224928 1.07688,-0.337496 1.654688,-0.337496 0.544464,0 1.067112,0.099664 1.567184,0.296872 0.499976,0.197312 0.943824,0.478616 1.332816,0.845312 l -1.142184,1.15 c -0.172256,0.166728 -0.21004,0.35836 -0.115632,0.575 0.09442,0.222264 0.257216,0.332816 0.490632,0.332816 h 3.734368 c 0.144432,0 0.269344,-0.05224 0.375,-0.157816 C 17.347744,9.66944 17.4,9.544424 17.4,9.4 V 5.667184 C 17.4,5.433872 17.289456,5.269512 17.067184,5.175 16.850448,5.080592 16.658912,5.11996 16.492184,5.292184 l -1.084368,1.075 C 14.813328,5.806048 14.134184,5.370888 13.370312,5.062504 12.606344,4.754112 11.816648,4.6 11,4.6 Z"
     id="path2"
     inkscape:connector-curvature="0"
     style="fill:#f2f2f2;stroke-width:0.80000001" />
</svg>
