<?xml version="1.0" encoding="UTF-8" standalone="no"?>
<svg
   xmlns:dc="http://purl.org/dc/elements/1.1/"
   xmlns:cc="http://creativecommons.org/ns#"
   xmlns:rdf="http://www.w3.org/1999/02/22-rdf-syntax-ns#"
   xmlns:svg="http://www.w3.org/2000/svg"
   xmlns="http://www.w3.org/2000/svg"
   xmlns:sodipodi="http://sodipodi.sourceforge.net/DTD/sodipodi-0.dtd"
   xmlns:inkscape="http://www.inkscape.org/namespaces/inkscape"
   viewBox="0 0 22 22"
   version="1.1"
   id="svg4"
   sodipodi:docname="rotate-left.svg"
   inkscape:version="0.92.2pre0 (973e216, 2017-07-25)">
  <metadata
     id="metadata10">
    <rdf:RDF>
      <cc:Work
         rdf:about="">
        <dc:format>image/svg+xml</dc:format>
        <dc:type
           rdf:resource="http://purl.org/dc/dcmitype/StillImage" />
      </cc:Work>
    </rdf:RDF>
  </metadata>
  <defs
     id="defs8" />
  <sodipodi:namedview
     pagecolor="#ffffff"
     bordercolor="#666666"
     borderopacity="1"
     objecttolerance="10"
     gridtolerance="10"
     guidetolerance="10"
     inkscape:pageopacity="0"
     inkscape:pageshadow="2"
     inkscape:window-width="826"
     inkscape:window-height="480"
     id="namedview6"
     showgrid="false"
     inkscape:zoom="10.727273"
     inkscape:cx="11"
     inkscape:cy="11"
     inkscape:window-x="0"
     inkscape:window-y="33"
     inkscape:window-maximized="0"
     inkscape:current-layer="svg4" />
  <path
     d="M 16.891652,8.516724 C 16.552892,7.727788 16.097316,7.047188 15.525148,6.475004 14.952876,5.90282 14.272388,5.44734 13.483372,5.108364 12.694468,4.769388 11.866796,4.600012 11.000148,4.600012 c -0.816624,0 -1.606864,0.154032 -2.370816,0.462424 C 7.865484,5.370828 7.186324,5.805548 6.591852,6.366684 L 5.508372,5.291564 C 5.341652,5.119316 5.150076,5.080444 4.93334,5.17486 4.711076,5.269356 4.599996,5.433332 4.599996,5.666636 v 3.733416 c 0,0.144432 0.0528,0.269424 0.158336,0.374992 0.105656,0.105552 0.230648,0.158328 0.375072,0.158328 h 3.733328 c 0.233408,0 0.397264,-0.11108 0.491672,-0.333352 C 9.452812,9.38338 9.413924,9.1917 9.2417,9.024972 L 8.10002,7.87498 c 0.388976,-0.366688 0.8334,-0.648592 1.33336,-0.845896 0.500064,-0.1972 1.022216,-0.29592 1.566664,-0.29592 0.5778,0 1.129208,0.112616 1.654224,0.337544 0.525024,0.225032 0.979056,0.529224 1.362408,0.912592 0.38336,0.383264 0.687552,0.837408 0.912576,1.36244 0.22492,0.525032 0.337424,1.076352 0.337424,1.654264 0,0.577912 -0.112504,1.129128 -0.337424,1.65416 -0.225024,0.525032 -0.529216,0.979176 -0.912576,1.362544 -0.383352,0.383368 -0.837488,0.68756 -1.362408,0.912488 -0.525016,0.225032 -1.076528,0.337544 -1.654224,0.337544 -0.661152,0 -1.286104,-0.144432 -1.875048,-0.43328 -0.58884,-0.288856 -1.08604,-0.697176 -1.491592,-1.225072 -0.03888,-0.05552 -0.102792,-0.08899 -0.19168,-0.100144 -0.08336,0 -0.152808,0.02496 -0.208352,0.07496 l -1.14168,1.150104 c -0.0444,0.04456 -0.068,0.10136 -0.0708,0.170816 -0.0024,0.06952 0.01536,0.131944 0.05424,0.187488 0.605616,0.733384 1.33888,1.30148 2.2,1.704176 0.86112,0.402696 1.769496,0.6042 2.725024,0.6042 0.866648,0 1.694424,-0.169488 2.483328,-0.50836 0.788912,-0.338872 1.469296,-0.794552 2.041672,-1.366632 0.572168,-0.572392 1.02764,-1.252792 1.3666,-2.04172 0.338864,-0.788928 0.508248,-1.616832 0.508248,-2.483392 0,-0.866768 -0.16948,-1.694256 -0.508344,-2.483184 z"
     id="path2"
     inkscape:connector-curvature="0"
     style="fill:#f2f2f2;stroke-width:0.80000001" />
</svg>
