<?xml version="1.0" encoding="UTF-8" standalone="no"?>
<svg
   xmlns:dc="http://purl.org/dc/elements/1.1/"
   xmlns:cc="http://creativecommons.org/ns#"
   xmlns:rdf="http://www.w3.org/1999/02/22-rdf-syntax-ns#"
   xmlns:svg="http://www.w3.org/2000/svg"
   xmlns="http://www.w3.org/2000/svg"
   xmlns:sodipodi="http://sodipodi.sourceforge.net/DTD/sodipodi-0.dtd"
   xmlns:inkscape="http://www.inkscape.org/namespaces/inkscape"
   viewBox="0 0 22 22"
   version="1.1"
   id="svg4"
   sodipodi:docname="select.svg"
   inkscape:version="0.92.2pre0 (973e216, 2017-07-25)">
  <metadata
     id="metadata10">
    <rdf:RDF>
      <cc:Work
         rdf:about="">
        <dc:format>image/svg+xml</dc:format>
        <dc:type
           rdf:resource="http://purl.org/dc/dcmitype/StillImage" />
      </cc:Work>
    </rdf:RDF>
  </metadata>
  <defs
     id="defs8" />
  <sodipodi:namedview
     pagecolor="#ffffff"
     bordercolor="#666666"
     borderopacity="1"
     objecttolerance="10"
     gridtolerance="10"
     guidetolerance="10"
     inkscape:pageopacity="0"
     inkscape:pageshadow="2"
     inkscape:window-width="826"
     inkscape:window-height="480"
     id="namedview6"
     showgrid="false"
     inkscape:zoom="10.727273"
     inkscape:cx="11"
     inkscape:cy="11"
     inkscape:window-x="481"
     inkscape:window-y="40"
     inkscape:window-maximized="0"
     inkscape:current-layer="svg4" />
  <path
     d="M 1.322034,1.5084752 V 3.8813565 5.0677972 H 4.9512713 V 3.8813565 1.5084752 H 2.5317798 Z m 15.726695,0 v 1.1864407 1.1864406 1.1864407 h 1.209746 1.209746 1.209745 V 3.8813565 2.6949159 1.5084752 Z M 2.5317798,2.6949159 H 3.7415256 V 3.8813565 H 2.5317798 Z m 15.7266952,0 h 1.209746 V 3.8813565 H 18.258475 Z M 6.161017,3.8813565 V 5.0677972 H 8.5805086 V 3.8813565 Z m 3.629237,0 v 1.1864407 h 2.419492 V 3.8813565 Z m 3.629238,0 v 1.1864407 h 2.419491 V 3.8813565 Z M 3.7415256,6.254238 V 8.6271193 H 4.9512713 V 6.254238 Z m 13.3072034,0 v 2.3728813 h 1.209746 V 6.254238 Z M 3.7415256,9.8135607 V 12.186442 H 4.9512713 V 9.8135607 Z m 13.3072034,0 v 2.3728813 h 1.209746 V 9.8135607 Z M 3.7415256,13.372883 v 2.372881 h 1.2097457 v -2.372881 z m 13.3072034,0 v 2.372881 h 1.209746 V 13.372883 Z M 1.322034,16.932204 v 1.186441 2.37288 h 1.2097458 1.2097458 1.2097457 v -3.559321 z m 4.838983,0 v 1.186441 h 2.4194916 v -1.186441 z m 3.629237,0 v 1.186441 h 2.419492 v -1.186441 z m 3.629238,0 v 1.186441 h 2.419491 v -1.186441 z m 3.629237,0 v 1.186441 1.18644 1.18644 h 1.209746 1.209746 1.209745 v -1.18644 -1.186439 -1.186442 H 18.258475 Z M 2.5317798,18.118646 h 1.2097458 v 1.18644 H 2.5317798 Z m 15.7266952,0 h 1.209746 v 1.18644 h -1.209746 z"
     id="path2"
     inkscape:connector-curvature="0"
     style="fill:#b2fafa;stroke-width:1.19803655;fill-opacity:1" />
</svg>
