<?xml version="1.0" encoding="UTF-8" standalone="no"?>
<svg
   xmlns:dc="http://purl.org/dc/elements/1.1/"
   xmlns:cc="http://creativecommons.org/ns#"
   xmlns:rdf="http://www.w3.org/1999/02/22-rdf-syntax-ns#"
   xmlns:svg="http://www.w3.org/2000/svg"
   xmlns="http://www.w3.org/2000/svg"
   xmlns:sodipodi="http://sodipodi.sourceforge.net/DTD/sodipodi-0.dtd"
   xmlns:inkscape="http://www.inkscape.org/namespaces/inkscape"
   viewBox="0 0 22 22"
   version="1.1"
   id="svg4"
   sodipodi:docname="transform-scale.svg"
   inkscape:version="0.92.2pre0 (973e216, 2017-07-25)">
  <metadata
     id="metadata10">
    <rdf:RDF>
      <cc:Work
         rdf:about="">
        <dc:format>image/svg+xml</dc:format>
        <dc:type
           rdf:resource="http://purl.org/dc/dcmitype/StillImage" />
      </cc:Work>
    </rdf:RDF>
  </metadata>
  <defs
     id="defs8" />
  <sodipodi:namedview
     pagecolor="#ffffff"
     bordercolor="#666666"
     borderopacity="1"
     objecttolerance="10"
     gridtolerance="10"
     guidetolerance="10"
     inkscape:pageopacity="0"
     inkscape:pageshadow="2"
     inkscape:window-width="1050"
     inkscape:window-height="701"
     id="namedview6"
     showgrid="false"
     inkscape:zoom="10.727273"
     inkscape:cx="-9.3220339"
     inkscape:cy="11"
     inkscape:window-x="314"
     inkscape:window-y="33"
     inkscape:window-maximized="0"
     inkscape:current-layer="svg4" />
  <path
     d="M 1.7881355,1.7881355 V 4.0911016 5.2425847 H 5.2425847 V 4.0911016 1.7881355 H 2.9396186 Z m 14.9692795,0 v 1.1514831 1.151483 1.1514831 h 1.151483 1.151483 1.151483 V 4.0911016 2.9396186 1.7881355 Z M 2.9396186,2.9396186 h 1.151483 v 1.151483 h -1.151483 z m 14.9692794,0 h 1.151483 v 1.151483 H 17.908898 Z M 6.3940677,4.0911016 V 5.2425847 H 8.6970338 V 4.0911016 Z m 3.4544488,0 V 5.2425847 H 12.151483 V 4.0911016 Z m 3.4544505,0 v 1.1514831 h 2.302966 V 4.0911016 Z M 4.0911016,6.3940677 V 8.6970338 H 5.2425847 V 6.3940677 Z m 12.6663134,0 v 2.3029661 h 1.151483 V 6.3940677 Z M 4.0911016,9.8485165 V 12.151482 H 5.2425847 V 9.8485165 Z M 9.8485165,11 v 6.908898 H 11 15.605933 16.757415 V 16.757415 12.151482 11 H 15.605933 11 Z M 11,12.151482 h 4.605933 v 4.605933 H 11 Z m -6.9088984,1.151484 v 2.302966 h 1.1514831 v -2.302966 z m 14.9692794,2.302966 v 3.454449 h -3.454448 v 1.151483 h 4.605931 V 19.060381 15.605932 Z M 1.7881355,16.757415 v 1.151483 2.302966 h 1.1514831 1.151483 1.1514831 v -3.454449 z m 4.6059322,0 v 1.151483 h 2.3029661 v -1.151483 z m -3.4544491,1.151483 h 1.151483 v 1.151483 h -1.151483 z"
     id="path2"
     inkscape:connector-curvature="0"
     style="fill:#f9f9f9;stroke-width:1.15148306;fill-opacity:1" />
</svg>
