<?xml version="1.0" encoding="UTF-8" standalone="no"?>
<svg
   xmlns:dc="http://purl.org/dc/elements/1.1/"
   xmlns:cc="http://creativecommons.org/ns#"
   xmlns:rdf="http://www.w3.org/1999/02/22-rdf-syntax-ns#"
   xmlns:svg="http://www.w3.org/2000/svg"
   xmlns="http://www.w3.org/2000/svg"
   xmlns:sodipodi="http://sodipodi.sourceforge.net/DTD/sodipodi-0.dtd"
   xmlns:inkscape="http://www.inkscape.org/namespaces/inkscape"
   width="16px"
   height="16px"
   viewBox="0 0 16 16"
   version="1.1"
   id="svg11"
   sodipodi:docname="user-trash-symbolic.svg"
   inkscape:version="0.92.2pre0 (973e216, 2017-07-25)">
  <metadata
     id="metadata15">
    <rdf:RDF>
      <cc:Work
         rdf:about="">
        <dc:format>image/svg+xml</dc:format>
        <dc:type
           rdf:resource="http://purl.org/dc/dcmitype/StillImage" />
      </cc:Work>
    </rdf:RDF>
  </metadata>
  <sodipodi:namedview
     pagecolor="#ffffff"
     bordercolor="#666666"
     borderopacity="1"
     objecttolerance="10"
     gridtolerance="10"
     guidetolerance="10"
     inkscape:pageopacity="0"
     inkscape:pageshadow="2"
     inkscape:window-width="1366"
     inkscape:window-height="700"
     id="namedview13"
     showgrid="false"
     inkscape:zoom="14.75"
     inkscape:cx="8"
     inkscape:cy="8"
     inkscape:window-x="0"
     inkscape:window-y="36"
     inkscape:window-maximized="1"
     inkscape:current-layer="svg11" />
  <!-- Generator: Sketch 42 (36781) - http://www.bohemiancoding.com/sketch -->
  <title
     id="title2">user-trash-symbolic</title>
  <desc
     id="desc4">Created with Sketch.</desc>
  <defs
     id="defs6" />
  <g
     id="Page-1"
     stroke="none"
     stroke-width="1"
     fill="none"
     fill-rule="evenodd"
     style="fill:#ffffff">
    <g
       id="user-trash-symbolic"
       fill-rule="nonzero"
       fill="#303030"
       style="fill:#ffffff">
      <path
         d="M13,4 L13,14.5 C13,14.7761424 12.7761424,15 12.5,15 L3.5,15 C3.22385763,15 3,14.7761424 3,14.5 L3,4 L1.54166667,4 C1.26552429,4 1.04166667,3.77614237 1.04166667,3.5 C1.04166667,3.22385763 1.26552429,3 1.54166667,3 L14.4583333,3 C14.7344757,3 14.9583333,3.22385763 14.9583333,3.5 C14.9583333,3.77614237 14.7344757,4 14.4583333,4 L13,4 Z M12,4 L4,4 L4,14 L12,14 L12,4 Z M5.5,2 C5.22385763,2 5,1.77614237 5,1.5 C5,1.22385763 5.22385763,1 5.5,1 L10.5,1 C10.7761424,1 11,1.22385763 11,1.5 C11,1.77614237 10.7761424,2 10.5,2 L5.5,2 Z M7,12.4259905 C7,12.7021329 6.77614237,12.9259905 6.5,12.9259905 C6.22385763,12.9259905 6,12.7021329 6,12.4259905 L6,5.53787667 C6,5.2617343 6.22385763,5.03787667 6.5,5.03787667 C6.77614237,5.03787667 7,5.2617343 7,5.53787667 L7,12.4259905 Z M10,12.4259905 C10,12.7021329 9.77614237,12.9259905 9.5,12.9259905 C9.22385763,12.9259905 9,12.7021329 9,12.4259905 L9,5.53787667 C9,5.2617343 9.22385763,5.03787667 9.5,5.03787667 C9.77614237,5.03787667 10,5.2617343 10,5.53787667 L10,12.4259905 Z"
         id="Combined-Shape"
         style="fill:#ffffff" />
    </g>
  </g>
</svg>
